REM DIRINDEX 1\5,1\2\6,1\2\7,1\3\8,1\3\9,1\4\10,1\4\11,1\4\12
REM DIRNAME cjc026,folder01,folder02,folder03,folder04,folder05,folder06,folder07,folder08,folder09,folder10,folder11
TITLE ""
FILE "EJE_DB3000_5th_2A_41.mp3" MP3
  TRACK 01 AUDIO
    TITLE "0:"
    INDEX 01 00:00:00
  TRACK 02 AUDIO
    TITLE "10:cjc026_08010"
    INDEX 01 00:00:08
  TRACK 03 AUDIO
    TITLE "0:"
    INDEX 01 00:01:22
  TRACK 04 AUDIO
    TITLE "11:cjc026_08011"
    INDEX 01 00:01:60
  TRACK 05 AUDIO
    TITLE "0:"
    INDEX 01 00:02:68
  TRACK 06 AUDIO
    TITLE "12:cjc026_08012"
    INDEX 01 00:03:28
  TRACK 07 AUDIO
    TITLE "0:"
    INDEX 01 00:04:42
  TRACK 08 AUDIO
    TITLE "10:cjc026_08013"
    INDEX 01 00:05:03
  TRACK 09 AUDIO
    TITLE "0:"
    INDEX 01 00:06:14
  TRACK 10 AUDIO
    TITLE "11:cjc026_08014"
    INDEX 01 00:06:49
  TRACK 11 AUDIO
    TITLE "0:"
    INDEX 01 00:08:10
  TRACK 12 AUDIO
    TITLE "12:cjc026_08015"
    INDEX 01 00:08:45
  TRACK 13 AUDIO
    TITLE "0:"
    INDEX 01 00:09:54
  TRACK 14 AUDIO
    TITLE "10:cjc026_08016"
    INDEX 01 00:10:16
  TRACK 15 AUDIO
    TITLE "0:"
    INDEX 01 00:11:44
  TRACK 16 AUDIO
    TITLE "11:cjc026_08017"
    INDEX 01 00:12:04
  TRACK 17 AUDIO
    TITLE "0:"
    INDEX 01 00:13:29
  TRACK 18 AUDIO
    TITLE "12:cjc026_08018"
    INDEX 01 00:13:67
  TRACK 19 AUDIO
    TITLE "0:"
    INDEX 01 00:15:19
  TRACK 20 AUDIO
    TITLE "10:cjc026_08019"
    INDEX 01 00:15:54
  TRACK 21 AUDIO
    TITLE "0:"
    INDEX 01 00:16:63
  TRACK 22 AUDIO
    TITLE "11:cjc026_08020"
    INDEX 01 00:17:23
  TRACK 23 AUDIO
    TITLE "0:"
    INDEX 01 00:18:48
  TRACK 24 AUDIO
    TITLE "12:cjc026_08021"
    INDEX 01 00:19:08
  TRACK 25 AUDIO
    TITLE "0:"
    INDEX 01 00:20:17
  TRACK 26 AUDIO
    TITLE "10:cjc026_08022"
    INDEX 01 00:20:52
  TRACK 27 AUDIO
    TITLE "0:"
    INDEX 01 00:21:55
  TRACK 28 AUDIO
    TITLE "11:cjc026_08023"
    INDEX 01 00:22:18
  TRACK 29 AUDIO
    TITLE "0:"
    INDEX 01 00:23:51
  TRACK 30 AUDIO
    TITLE "12:cjc026_08024"
    INDEX 01 00:24:14
  TRACK 31 AUDIO
    TITLE "0:"
    INDEX 01 00:25:15
  TRACK 32 AUDIO
    TITLE "10:cjc026_08025"
    INDEX 01 00:25:52
  TRACK 33 AUDIO
    TITLE "0:"
    INDEX 01 00:26:69
  TRACK 34 AUDIO
    TITLE "11:cjc026_08026"
    INDEX 01 00:27:29
  TRACK 35 AUDIO
    TITLE "0:"
    INDEX 01 00:28:62
  TRACK 36 AUDIO
    TITLE "12:cjc026_08027"
    INDEX 01 00:29:25
  TRACK 37 AUDIO
    TITLE "0:"
    INDEX 01 00:30:39
  TRACK 38 AUDIO
    TITLE "10:cjc026_08028"
    INDEX 01 00:31:02
  TRACK 39 AUDIO
    TITLE "0:"
    INDEX 01 00:32:19
  TRACK 40 AUDIO
    TITLE "11:cjc026_08029"
    INDEX 01 00:32:54
  TRACK 41 AUDIO
    TITLE "0:"
    INDEX 01 00:34:09
  TRACK 42 AUDIO
    TITLE "12:cjc026_08030"
    INDEX 01 00:34:44
  TRACK 43 AUDIO
    TITLE "0:"
    INDEX 01 00:35:61
  TRACK 44 AUDIO
    TITLE "10:cjc026_08031"
    INDEX 01 00:36:24
  TRACK 45 AUDIO
    TITLE "0:"
    INDEX 01 00:37:11
  TRACK 46 AUDIO
    TITLE "11:cjc026_08032"
    INDEX 01 00:37:54
  TRACK 47 AUDIO
    TITLE "0:"
    INDEX 01 00:39:23
  TRACK 48 AUDIO
    TITLE "12:cjc026_08033"
    INDEX 01 00:39:61
  TRACK 49 AUDIO
    TITLE "0:"
    INDEX 01 00:40:48
  TRACK 50 AUDIO
    TITLE "10:cjc026_08034"
    INDEX 01 00:41:13
  TRACK 51 AUDIO
    TITLE "0:"
    INDEX 01 00:42:33
  TRACK 52 AUDIO
    TITLE "11:cjc026_08035"
    INDEX 01 00:42:68
  TRACK 53 AUDIO
    TITLE "0:"
    INDEX 01 00:44:42
  TRACK 54 AUDIO
    TITLE "12:cjc026_08036"
    INDEX 01 00:45:05
  TRACK 55 AUDIO
    TITLE "0:"
    INDEX 01 00:46:22
  TRACK 56 AUDIO
    TITLE "10:cjc026_08037"
    INDEX 01 00:46:60
  TRACK 57 AUDIO
    TITLE "0:"
    INDEX 01 00:48:07
  TRACK 58 AUDIO
    TITLE "11:cjc026_08038"
    INDEX 01 00:48:45
  TRACK 59 AUDIO
    TITLE "0:"
    INDEX 01 00:50:11
  TRACK 60 AUDIO
    TITLE "12:cjc026_08039"
    INDEX 01 00:50:48
  TRACK 61 AUDIO
    TITLE "0:"
    INDEX 01 00:51:71
  TRACK 62 AUDIO
    TITLE "10:cjc026_08040"
    INDEX 01 00:52:33
  TRACK 63 AUDIO
    TITLE "0:"
    INDEX 01 00:53:56
  TRACK 64 AUDIO
    TITLE "11:cjc026_08041"
    INDEX 01 00:54:16
  TRACK 65 AUDIO
    TITLE "0:"
    INDEX 01 00:55:57
  TRACK 66 AUDIO
    TITLE "12:cjc026_08042"
    INDEX 01 00:56:17
  TRACK 67 AUDIO
    TITLE "0:"
    INDEX 01 00:57:39
  TRACK 68 AUDIO
    TITLE "10:cjc026_08043"
    INDEX 01 00:57:74
  TRACK 69 AUDIO
    TITLE "0:"
    INDEX 01 00:59:24
  TRACK 70 AUDIO
    TITLE "11:cjc026_08044"
    INDEX 01 00:59:62
  TRACK 71 AUDIO
    TITLE "0:"
    INDEX 01 01:01:25
  TRACK 72 AUDIO
    TITLE "12:cjc026_08045"
    INDEX 01 01:01:60
  TRACK 73 AUDIO
    TITLE "0:"
    INDEX 01 01:03:10
